<svg xmlns="http://www.w3.org/2000/svg" viewBox="0 0 1280 320" width="1280" height="320" role="img" aria-label="homebrew-vpn-bypass"><defs><clipPath id="c"><rect width="1280" height="320" rx="16"/></clipPath></defs><g clip-path="url(#c)"><rect width="1280" height="320" fill="#16284A"/><circle cx="1180" cy="62" r="26" fill="#F1F5F9"/><circle cx="1192" cy="54" r="24" fill="#16284A"/><path d="M640 320 L760 190 L820 230 L930 90 L1060 250 L1120 200 L1280 320 Z" fill="#1E3456"/><path d="M930 90 L962 130 L944 124 L930 140 L916 122 L902 126 Z" fill="#CBD5E1"/><path d="M600 320 L700 250 L800 300 L900 240 L1000 290 L1280 260 L1280 320 Z" fill="#0E1A2E"/><rect x="600" y="286" width="680" height="34" fill="#2A3342"/><path d="M600 303 H1280" stroke="#64748B" stroke-width="3" stroke-dasharray="18 14"/><path d="M892 286 v-30 a38 38 0 0 1 76 0 v30 Z" fill="#050A14" stroke="#475569" stroke-width="6"/><path d="M780 290 C820 250 860 230 900 200 C960 160 880 140 930 118 C990 100 980 170 1030 190 C1090 210 1120 260 1180 290" fill="none" stroke="#38BDF8" stroke-width="10" stroke-linecap="round"/><path d="M780 290 C820 250 860 230 900 200 C960 160 880 140 930 118 C990 100 980 170 1030 190 C1090 210 1120 260 1180 290" fill="none" stroke="#0F1B30" stroke-width="2" stroke-dasharray="10 10"/><g transform="translate(1024 176) rotate(22)"><rect x="-16" y="-10" width="32" height="16" rx="5" fill="#F8FAFC"/><circle cx="-8" cy="7" r="5" fill="#0F172A"/><circle cx="8" cy="7" r="5" fill="#0F172A"/></g><path fill="#F1F5F9" d="M76 114l0 16l-9 0l0-41l9 0l0 20l-1 0q1-4 3-6q3-3 7-3q3 0 5 2q3 1 4 4q1 2 1 6l0 18l-9 0l0-16q0-3-2-4q-1-1-3-1q-2 0-3 0q-1 1-1 2q-1 1-1 3zM113 131q-4 0-8-2q-3-2-5-5q-2-4-2-8q0-5 2-8q2-4 5-6q4-2 8-2q5 0 8 2q4 2 6 6q1 3 1 8q0 4-1 8q-2 3-6 5q-3 2-8 2zm0-8q2 0 3-1q1-1 2-2q1-2 1-4q0-3-1-5q-1-1-2-2q-1-1-3-1q-1 0-3 1q-1 1-2 2q0 2 0 5q0 2 0 4q1 1 2 2q2 1 3 1zM132 130l0-29l9 0l0 7l-1 0q1-3 2-4q2-2 3-3q2-1 4-1q4 0 6 2q3 2 3 6l-1 0q1-3 2-4q2-2 4-3q2-1 4-1q3 0 5 2q2 1 4 3q1 3 1 6l0 19l-10 0l0-17q0-2-1-4q-1-1-3-1q-1 0-2 1q-1 0-2 1q0 2 0 3l0 17l-9 0l0-17q0-2-2-4q-1-1-3-1q-1 0-2 1q-1 0-1 1q-1 2-1 3l0 17zM195 131q-5 0-8-2q-3-2-5-6q-2-3-2-7q0-5 2-8q2-4 5-6q3-2 7-2q4 0 6 2q3 1 5 3q2 2 3 4q1 3 1 6l0 3l-26 0l0-6l22 0l-5 1q0-1 0-3q-1-1-2-2q-2-1-3-1q-2 0-3 1q-2 1-2 2q-1 2-1 3l0 5q0 1 1 3q0 1 2 2q1 1 3 1q1 0 3-1q1 0 1-1q1 0 1-1l9 0q-1 3-3 5q-2 2-5 3q-3 2-6 2zM230 131q-2 0-4-1q-1 0-3-2q-1-1-2-2l0 0l0 4l-9 0l0-41l9 0l0 16l0 0q1-2 3-3q1-1 2-1q2-1 4-1q3 0 6 2q3 2 5 6q1 3 1 8q0 4-1 7q-2 4-5 6q-3 2-6 2zm-3-8q2 0 3-1q1-1 2-2q1-2 1-4q0-3-1-5q-1-1-2-2q-1-1-3-1q-2 0-3 1q-1 1-2 3q-1 1-1 4q0 2 1 4q1 1 2 2q1 1 3 1zM245 130l0-29l9 0l0 5l0 0q1-3 3-4q2-1 4-1q1 0 2 0q0 0 1 0l0 8q0 0-2 0q-1 0-2 0q-1 0-3 1q-1 0-2 2q0 1 0 3l0 15zM280 131q-5 0-8-2q-3-2-5-6q-2-3-2-7q0-5 2-8q2-4 5-6q3-2 8-2q3 0 6 2q2 1 4 3q2 2 3 4q1 3 1 6l0 3l-26 0l0-6l22 0l-4 1q0-1-1-3q-1-1-2-2q-1-1-3-1q-2 0-3 1q-2 1-2 2q-1 2-1 3l0 5q0 1 1 3q1 1 2 2q1 1 3 1q2 0 3-1q1 0 1-1q1 0 2-1l8 0q-1 3-3 5q-2 2-5 3q-3 2-6 2zM303 130l-9-29l10 0l2 9q1 3 2 7q0 3 1 7l-1 0q1-4 1-7q1-4 2-7l2-9l9 0l2 9q1 3 2 7q1 3 1 7l-1 0q1-4 1-7q1-4 2-7l2-9l10 0l-9 29l-9 0l-4-11q0-1-1-3q0-2 0-3q-1-2-1-4l1 0q0 2 0 4q-1 1-1 3q-1 2-1 3l-3 11zM362 111l0 7l-19 0l0-7zM374 130l-11-29l10 0l4 13q1 3 2 6q1 3 1 5l-2 0q1-2 2-5q0-3 1-6l4-13l10 0l-11 29zM397 141l0-40l9 0l0 4l0 0q1-2 2-3q2-1 3-1q2-1 4-1q3 0 6 2q3 2 4 6q2 3 2 8q0 4-2 7q-1 4-4 6q-3 2-7 2q-1 0-3-1q-2 0-3-2q-1-1-2-2l0 0l0 15zm15-18q2 0 3-1q1-1 2-2q0-2 0-4q0-3 0-5q-1-1-2-2q-1-1-3-1q-2 0-3 1q-2 1-2 3q-1 1-1 4q0 2 1 4q0 1 2 2q1 1 3 1zM439 114l0 16l-9 0l0-29l9 0l0 8l-1 0q1-4 4-6q2-3 6-3q4 0 6 2q2 1 3 4q1 2 1 6l0 18l-9 0l0-16q0-3-1-4q-1-1-4-1q-1 0-2 0q-1 1-2 2q-1 1-1 3zM482 111l0 7l-19 0l0-7zM505 131q-2 0-4-1q-2 0-3-2q-1-1-2-2l0 0l0 4l-9 0l0-41l9 0l0 16l0 0q1-2 3-3q1-1 2-1q2-1 4-1q3 0 6 2q3 2 5 6q1 3 1 8q0 4-1 7q-2 4-5 6q-3 2-6 2zm-3-8q2 0 3-1q1-1 2-2q1-2 1-4q0-3-1-5q-1-1-2-2q-1-1-3-1q-2 0-3 1q-2 1-2 3q-1 1-1 4q0 2 1 4q0 1 2 2q1 1 3 1zM520 141l0-7l4 0q1 0 2 0q0 0 1-1q0-1 0-2l1-1l-11-29l10 0l4 13q1 3 1 6q1 3 2 5l-3 0q1-2 2-5q0-3 1-6l5-13l9 0l-12 33q-1 3-2 4q-2 2-3 3q-2 0-5 0q-1 0-3 0q-1 0-3 0zM550 141l0-40l9 0l0 4l1 0q0-2 2-3q1-1 2-1q2-1 4-1q4 0 6 2q3 2 5 6q1 3 1 8q0 4-1 7q-2 4-5 6q-2 2-6 2q-2 0-4-1q-1 0-2-2q-2-1-2-2l0 0l0 15zm15-18q2 0 3-1q1-1 2-2q1-2 1-4q0-3-1-5q-1-1-2-2q-1-1-3-1q-2 0-3 1q-1 1-2 3q-1 1-1 4q0 2 1 4q1 1 2 2q1 1 3 1zM593 130q-3 0-5 0q-3-1-4-3q-1-2-1-5q0-2 1-4q1-2 2-3q2-1 4-1q2-1 4-1q3 0 4-1q2 0 2 0q1-1 1-2l0 0q0-1 0-1q-1-1-2-1q-1-1-2-1q-1 0-2 1q-1 0-2 1q0 0 0 1l-9 0q0-3 2-5q1-2 4-3q3-2 7-2q4 0 6 1q2 1 4 2q2 1 3 3q0 2 0 5l0 19l-9 0l0-4l0 0q-1 2-2 3q-1 1-3 1q-1 0-3 0zm3-6q1 0 2 0q2-1 2-2q1-1 1-2l0-3q0 0-1 0q0 0-1 1q-1 0-1 0q-1 0-2 0q-1 0-2 1q-1 0-2 1q0 1 0 1q0 1 0 2q1 1 2 1q0 0 2 0zM627 131q-4 0-7-1q-3-2-5-4q-1-2-2-5l10 0q0 1 1 2q1 1 3 1q2 0 3 0q1-1 1-2q0-1 0-2q-1 0-3-1l-5-1q-5 0-7-3q-2-2-2-5q0-3 1-5q2-2 5-3q3-1 7-1q4 0 7 1q3 1 4 3q2 2 2 6l-8 0q0-2-2-3q-1-1-3-1q-2 0-3 1q-1 0-1 1q0 1 1 2q1 1 2 1l6 1q5 1 7 3q2 2 2 5q0 3-2 5q-1 2-5 3q-3 2-7 2zM657 131q-4 0-8-1q-3-2-4-4q-2-2-3-5l10 0q0 1 1 2q1 1 3 1q2 0 3 0q2-1 2-2q0-1-1-2q-1 0-3-1l-5-1q-4 0-7-3q-2-2-2-5q0-3 2-5q1-2 4-3q3-1 7-1q4 0 7 1q3 1 5 3q1 2 1 6l-8 0q0-2-2-3q-1-1-3-1q-1 0-2 1q-2 0-2 1q0 1 1 2q1 1 3 1l5 1q5 1 7 3q2 2 2 5q0 3-2 5q-1 2-4 3q-3 2-7 2z"/><path fill="#7DD3FC" d="M66.6 164.2l0-2.4l14.3 0l0 2.4l-5.8 0l0 15.8l-2.7 0l0-15.8zM85.5 172.6l0 7.4l-2.6 0l0-18.2l2.6 0l0 8.5l-0.7 0q0.7-1.7 1.8-2.6q1.1-0.8 2.7-0.8q1.4 0 2.4 0.5q1.1 0.6 1.7 1.7q0.6 1.2 0.6 2.9l0 8l-2.6 0l0-7.7q0-1.6-0.7-2.4q-0.7-0.7-2.1-0.7q-0.9 0-1.6 0.3q-0.7 0.4-1.1 1.1q-0.4 0.8-0.4 2zM102.4 180.3q-1.9 0-3.3-0.9q-1.3-0.8-2.1-2.4q-0.7-1.5-0.7-3.4q0-2 0.7-3.5q0.8-1.5 2.2-2.4q1.3-0.9 3.1-0.9q1.3 0 2.5 0.5q1.1 0.5 1.8 1.4q0.8 0.9 1.3 2.1q0.4 1.3 0.4 2.8l0 0.7l-10.9 0l0-2l9.5 0l-1.1 0.6q0-1.2-0.4-2.1q-0.4-0.9-1.2-1.4q-0.8-0.4-1.9-0.4q-1.1 0-1.8 0.4q-0.8 0.5-1.3 1.4q-0.4 0.9-0.4 2.1l0 1.1q0 1.2 0.4 2.2q0.5 0.9 1.3 1.4q0.8 0.5 2 0.5q0.8 0 1.4-0.2q0.7-0.3 1.1-0.7q0.4-0.5 0.6-1.1l2.5 0q-0.2 1.2-1 2.2q-0.8 0.9-2 1.5q-1.2 0.5-2.7 0.5zM121.2 180.3q-1.4 0-2.6-0.5q-1.2-0.4-1.9-1.4q-0.7-0.9-0.8-2.3l2.5 0q0.1 1 0.8 1.6q0.7 0.6 2 0.6q1.2 0 1.9-0.5q0.7-0.5 0.7-1.3q0-0.7-0.5-1.1q-0.5-0.4-1.3-0.6l-2.1-0.4q-1.9-0.4-2.8-1.4q-0.9-0.9-0.9-2.3q0-1.2 0.6-2q0.6-0.9 1.7-1.4q1.1-0.5 2.6-0.5q1.4 0 2.6 0.5q1.1 0.6 1.8 1.5q0.6 0.9 0.6 2.2l-2.4 0q0-0.9-0.7-1.5q-0.7-0.6-1.9-0.6q-1.1 0-1.7 0.5q-0.7 0.5-0.7 1.2q0 0.7 0.5 1.1q0.5 0.4 1.4 0.6l2.2 0.5q1.9 0.4 2.8 1.3q0.8 0.8 0.8 2.2q0 1.3-0.6 2.2q-0.7 0.8-1.9 1.3q-1.1 0.5-2.7 0.5zM134.2 180.3q-1.8 0-3.2-0.9q-1.4-0.8-2.1-2.3q-0.8-1.6-0.8-3.5q0-2 0.8-3.5q0.7-1.6 2.1-2.4q1.4-0.9 3.2-0.9q1.2 0 2.2 0.4q1 0.3 1.7 0.9q0.7 0.7 1.2 1.5q0.5 0.9 0.6 1.9l-2.6 0q-0.1-0.5-0.3-1q-0.3-0.4-0.7-0.8q-0.4-0.3-0.9-0.5q-0.5-0.2-1.2-0.2q-1.1 0-1.9 0.6q-0.7 0.6-1.2 1.6q-0.4 1-0.4 2.4q0 1.3 0.4 2.4q0.5 1 1.2 1.5q0.8 0.6 1.9 0.6q0.7 0 1.2-0.2q0.5-0.2 0.9-0.5q0.4-0.3 0.6-0.8q0.3-0.5 0.4-1l2.6 0q-0.1 1-0.6 1.8q-0.4 0.9-1.2 1.5q-0.7 0.7-1.7 1q-1 0.4-2.2 0.4zM147.6 180.3q-1.9 0-3.3-0.9q-1.4-0.8-2.1-2.4q-0.8-1.5-0.8-3.4q0-2 0.8-3.5q0.8-1.5 2.1-2.4q1.4-0.9 3.1-0.9q1.4 0 2.5 0.5q1.1 0.5 1.9 1.4q0.8 0.9 1.2 2.1q0.5 1.3 0.5 2.8l0 0.7l-10.9 0l0-2l9.5 0l-1.1 0.6q0-1.2-0.5-2.1q-0.4-0.9-1.2-1.4q-0.8-0.4-1.8-0.4q-1.1 0-1.9 0.4q-0.8 0.5-1.2 1.4q-0.4 0.9-0.4 2.1l0 1.1q0 1.2 0.4 2.2q0.4 0.9 1.2 1.4q0.8 0.5 2 0.5q0.8 0 1.5-0.2q0.6-0.3 1.1-0.7q0.4-0.5 0.6-1.1l2.5 0q-0.3 1.2-1.1 2.2q-0.8 0.9-2 1.5q-1.2 0.5-2.6 0.5zM158.2 172.6l0 7.4l-2.5 0l0-12.9l2.5 0l0 3.2l-0.6 0q0.6-1.7 1.8-2.6q1.1-0.8 2.7-0.8q1.3 0 2.4 0.5q1 0.6 1.6 1.7q0.7 1.2 0.7 2.9l0 8l-2.6 0l0-7.7q0-1.6-0.8-2.4q-0.7-0.7-2-0.7q-0.9 0-1.6 0.3q-0.7 0.4-1.1 1.1q-0.5 0.8-0.5 2zM169.7 180l0-12.9l2.5 0l0 12.9zm1.2-15.1q-0.6 0-1.1-0.5q-0.5-0.4-0.5-1.1q0-0.7 0.5-1.1q0.5-0.5 1.1-0.5q0.7 0 1.2 0.5q0.5 0.4 0.5 1.1q0 0.7-0.5 1.1q-0.5 0.5-1.2 0.5zM180.7 180.3q-1.9 0-3.3-0.9q-1.3-0.8-2.1-2.3q-0.8-1.6-0.8-3.5q0-2 0.8-3.5q0.8-1.6 2.1-2.4q1.4-0.9 3.3-0.9q1.1 0 2.1 0.4q1 0.3 1.7 0.9q0.8 0.7 1.2 1.5q0.5 0.9 0.6 1.9l-2.6 0q-0.1-0.5-0.3-1q-0.2-0.4-0.6-0.8q-0.4-0.3-0.9-0.5q-0.6-0.2-1.2-0.2q-1.1 0-1.9 0.6q-0.8 0.6-1.3 1.6q-0.4 1-0.4 2.4q0 1.3 0.4 2.4q0.5 1 1.3 1.5q0.8 0.6 1.9 0.6q0.6 0 1.1-0.2q0.6-0.2 0.9-0.5q0.4-0.3 0.6-0.8q0.3-0.5 0.4-1l2.6 0q-0.1 1-0.6 1.8q-0.4 0.9-1.2 1.5q-0.7 0.7-1.7 1q-1 0.4-2.1 0.4zM194.4 180l0-12.9l2.5 0l0 2.1l0.1 0q0.3-1.1 1.1-1.7q0.7-0.5 2-0.5q0.3 0 0.5 0q0.3 0 0.4 0l0 2.4q-0.1 0-0.5-0.1q-0.4 0-0.8 0q-0.8 0-1.4 0.3q-0.6 0.4-0.9 1q-0.4 0.7-0.4 1.8l0 7.6zM208.3 180.3q-1.9 0-3.3-0.9q-1.4-0.8-2.1-2.3q-0.8-1.5-0.8-3.5q0-2 0.8-3.5q0.7-1.6 2.1-2.4q1.4-0.9 3.3-0.9q1.8 0 3.2 0.9q1.4 0.8 2.2 2.4q0.7 1.5 0.7 3.5q0 2-0.7 3.5q-0.8 1.5-2.2 2.3q-1.4 0.9-3.2 0.9zm0-2.2q1.1 0 1.9-0.6q0.8-0.5 1.2-1.6q0.4-1 0.4-2.3q0-1.4-0.4-2.4q-0.4-1-1.2-1.6q-0.8-0.6-1.9-0.6q-1.1 0-1.9 0.6q-0.8 0.5-1.3 1.6q-0.4 1-0.4 2.4q0 1.3 0.4 2.4q0.5 1 1.3 1.5q0.8 0.6 1.9 0.6zM221.4 180.3q-1.3 0-2.4-0.6q-1.1-0.6-1.7-1.7q-0.6-1.2-0.6-2.9l0-8l2.6 0l0 7.7q0 1.6 0.7 2.4q0.8 0.7 2.1 0.7q0.9 0 1.6-0.3q0.7-0.4 1.1-1.1q0.4-0.8 0.4-2l0-7.4l2.6 0l0 12.9l-2.5 0l0-3.2l0.6 0q-0.6 1.7-1.8 2.6q-1.1 0.9-2.7 0.9zM236.9 167.1l0 2.1l-7.4 0l0-2.1zm-5.2-3.5l2.6 0l0 13q0 0.7 0.3 1q0.3 0.3 1.1 0.3q0.3 0 0.6 0q0.4 0 0.6 0l0 2.1q-0.3 0-0.7 0q-0.5 0-0.9 0q-1.8 0-2.7-0.8q-0.9-0.7-0.9-2.3zM244.2 180.3q-1.9 0-3.2-0.9q-1.4-0.8-2.2-2.4q-0.7-1.5-0.7-3.4q0-2 0.8-3.5q0.7-1.5 2.1-2.4q1.4-0.9 3.1-0.9q1.4 0 2.5 0.5q1.1 0.5 1.9 1.4q0.8 0.9 1.2 2.1q0.4 1.3 0.4 2.8l0 0.7l-10.8 0l0-2l9.5 0l-1.2 0.6q0-1.2-0.4-2.1q-0.4-0.9-1.2-1.4q-0.8-0.4-1.9-0.4q-1 0-1.8 0.4q-0.8 0.5-1.2 1.4q-0.5 0.9-0.5 2.1l0 1.1q0 1.2 0.5 2.2q0.4 0.9 1.2 1.4q0.8 0.5 2 0.5q0.8 0 1.5-0.2q0.6-0.3 1-0.7q0.5-0.5 0.7-1.1l2.4 0q-0.2 1.2-1 2.2q-0.8 0.9-2 1.5q-1.2 0.5-2.7 0.5zM264.6 167.1l0 2.1l-7.5 0l0-2.1zm-5.2 12.9l0-15q0-1 0.4-1.7q0.4-0.7 1.2-1.1q0.9-0.4 2-0.4q0.5 0 1 0q0.4 0 0.6 0l0 2.1q-0.2 0-0.6 0q-0.3 0-0.6 0q-0.8 0-1.1 0.4q-0.4 0.3-0.4 1.1l0 14.6zM271.8 180.3q-1.8 0-3.2-0.9q-1.4-0.8-2.2-2.3q-0.8-1.5-0.8-3.5q0-2 0.8-3.5q0.8-1.6 2.2-2.4q1.4-0.9 3.2-0.9q1.8 0 3.2 0.9q1.4 0.8 2.2 2.4q0.8 1.5 0.8 3.5q0 2-0.8 3.5q-0.8 1.5-2.2 2.3q-1.4 0.9-3.2 0.9zm0-2.2q1.1 0 1.9-0.6q0.8-0.5 1.2-1.6q0.5-1 0.5-2.3q0-1.4-0.5-2.4q-0.4-1-1.2-1.6q-0.8-0.6-1.9-0.6q-1.1 0-1.9 0.6q-0.8 0.5-1.2 1.6q-0.5 1-0.5 2.4q0 1.3 0.5 2.4q0.4 1 1.2 1.5q0.8 0.6 1.9 0.6zM280.2 180l0-12.9l2.5 0l0 2.1l0.1 0q0.3-1.1 1.1-1.7q0.7-0.5 2-0.5q0.3 0 0.5 0q0.3 0 0.4 0l0 2.4q-0.1 0-0.5-0.1q-0.4 0-0.8 0q-0.8 0-1.4 0.3q-0.6 0.4-0.9 1q-0.4 0.7-0.4 1.8l0 7.6zM300.9 167.1l0 2.1l-7.5 0l0-2.1zm-5.2-3.5l2.6 0l0 13q0 0.7 0.3 1q0.3 0.3 1 0.3q0.3 0 0.7 0q0.3 0 0.6 0l0 2.1q-0.3 0-0.8 0q-0.4 0-0.8 0q-1.8 0-2.7-0.8q-0.9-0.7-0.9-2.3zM305.5 172.6l0 7.4l-2.6 0l0-18.2l2.6 0l0 8.5l-0.6 0q0.6-1.7 1.7-2.6q1.2-0.8 2.8-0.8q1.3 0 2.3 0.5q1.1 0.6 1.7 1.7q0.6 1.2 0.6 2.9l0 8l-2.6 0l0-7.7q0-1.6-0.7-2.4q-0.7-0.7-2.1-0.7q-0.9 0-1.6 0.3q-0.7 0.4-1.1 1.1q-0.4 0.8-0.4 2zM322.4 180.3q-1.9 0-3.3-0.9q-1.3-0.8-2.1-2.4q-0.7-1.5-0.7-3.4q0-2 0.8-3.5q0.7-1.5 2.1-2.4q1.3-0.9 3.1-0.9q1.4 0 2.5 0.5q1.1 0.5 1.9 1.4q0.8 0.9 1.2 2.1q0.4 1.3 0.4 2.8l0 0.7l-10.8 0l0-2l9.5 0l-1.2 0.6q0-1.2-0.4-2.1q-0.4-0.9-1.2-1.4q-0.8-0.4-1.9-0.4q-1 0-1.8 0.4q-0.8 0.5-1.2 1.4q-0.5 0.9-0.5 2.1l0 1.1q0 1.2 0.5 2.2q0.4 0.9 1.2 1.4q0.8 0.5 2 0.5q0.8 0 1.5-0.2q0.6-0.3 1-0.7q0.5-0.5 0.6-1.1l2.5 0q-0.2 1.2-1 2.2q-0.8 0.9-2 1.5q-1.2 0.5-2.7 0.5zM340.4 180.2q-1.3 0-2.3-0.4q-1-0.5-1.6-1.3q-0.5-0.9-0.5-2.2q0-1.1 0.4-1.8q0.4-0.7 1.1-1.1q0.7-0.4 1.7-0.6q0.9-0.3 1.8-0.4q1.3-0.1 2-0.2q0.7-0.1 1-0.3q0.3-0.2 0.3-0.7l0-0.1q0-0.6-0.3-1.1q-0.3-0.5-0.9-0.8q-0.6-0.2-1.4-0.2q-0.8 0-1.5 0.2q-0.6 0.3-1 0.8q-0.3 0.4-0.4 1l-2.5 0q0-1.2 0.7-2.1q0.7-1 1.9-1.5q1.2-0.5 2.8-0.5q1.2 0 2.1 0.3q1 0.3 1.7 0.8q0.6 0.6 1 1.4q0.3 0.8 0.3 1.8l0 8.8l-2.5 0l0-1.8l-0.1 0q-0.2 0.5-0.7 1q-0.5 0.4-1.2 0.7q-0.8 0.3-1.9 0.3zm0.6-2.1q1.1 0 1.8-0.4q0.8-0.4 1.1-1.1q0.4-0.6 0.4-1.4l0-1.5q-0.2 0.1-0.4 0.2q-0.3 0.1-0.8 0.1q-0.4 0.1-0.9 0.2q-0.5 0.1-1 0.1q-0.7 0.1-1.3 0.4q-0.6 0.2-1 0.6q-0.4 0.4-0.4 1.1q0 0.5 0.3 0.9q0.3 0.4 0.9 0.6q0.5 0.2 1.3 0.2zM349.7 185.1l0-18l2.6 0l0 1.9l0 0q0.4-0.7 1-1.2q0.6-0.5 1.4-0.7q0.8-0.2 1.6-0.2q1.7 0 2.9 0.8q1.3 0.8 2 2.4q0.7 1.5 0.7 3.5q0 1.9-0.7 3.5q-0.7 1.5-2 2.3q-1.2 0.9-2.9 0.9q-0.9 0-1.6-0.3q-0.7-0.2-1.3-0.7q-0.6-0.5-1.1-1.2l0 0l0 7zm6-7.1q1.1 0 1.9-0.5q0.8-0.5 1.2-1.5q0.4-1 0.4-2.4q0-1.5-0.4-2.5q-0.4-1-1.2-1.5q-0.8-0.5-1.9-0.5q-1.1 0-1.9 0.5q-0.8 0.6-1.2 1.6q-0.5 1-0.5 2.4q0 1.3 0.5 2.3q0.4 1 1.2 1.6q0.8 0.5 1.9 0.5zM364.1 185.1l0-18l2.6 0l0 1.9l0 0q0.4-0.7 1-1.2q0.6-0.5 1.4-0.7q0.8-0.2 1.6-0.2q1.7 0 2.9 0.8q1.3 0.8 2 2.4q0.7 1.5 0.7 3.5q0 1.9-0.7 3.5q-0.7 1.5-2 2.3q-1.2 0.9-2.9 0.9q-0.9 0-1.6-0.3q-0.7-0.2-1.3-0.7q-0.6-0.5-1.1-1.2l0 0l0 7zm6.1-7.1q1 0 1.8-0.5q0.8-0.5 1.2-1.5q0.5-1 0.5-2.4q0-1.5-0.5-2.5q-0.4-1-1.2-1.5q-0.8-0.5-1.8-0.5q-1.1 0-2 0.5q-0.8 0.6-1.2 1.6q-0.5 1-0.5 2.4q0 1.3 0.5 2.3q0.4 1 1.2 1.6q0.9 0.5 2 0.5zM383.3 180.3q-1.5 0-2.7-0.5q-1.1-0.4-1.9-1.4q-0.7-0.9-0.8-2.3l2.6 0q0.1 1 0.8 1.6q0.7 0.6 2 0.6q1.2 0 1.9-0.5q0.7-0.5 0.7-1.3q0-0.7-0.5-1.1q-0.5-0.4-1.3-0.6l-2.2-0.4q-1.8-0.4-2.7-1.4q-1-0.9-1-2.3q0-1.2 0.6-2q0.7-0.9 1.8-1.4q1.1-0.5 2.6-0.5q1.4 0 2.5 0.5q1.2 0.6 1.8 1.5q0.7 0.9 0.7 2.2l-2.5 0q0-0.9-0.7-1.5q-0.7-0.6-1.8-0.6q-1.1 0-1.8 0.5q-0.6 0.5-0.6 1.2q0 0.7 0.5 1.1q0.5 0.4 1.4 0.6l2.1 0.5q1.9 0.4 2.8 1.3q0.9 0.8 0.9 2.2q0 1.3-0.7 2.2q-0.6 0.8-1.8 1.3q-1.2 0.5-2.7 0.5zM396.9 185.1l0-2.2l1.4 0q0.4 0 0.7-0.1q0.3-0.2 0.5-0.5q0.3-0.3 0.5-0.8l0.6-1.6l-5-12.8l2.7 0l2.6 7.1q0.4 1 0.7 2q0.3 1 0.6 2l-0.7 0q0.4-1 0.7-2q0.3-1 0.7-2l2.5-7.1l2.7 0l-5.8 15.2q-0.4 0.9-0.9 1.5q-0.6 0.7-1.3 1q-0.7 0.3-1.6 0.3q-0.4 0-0.8 0q-0.4 0-0.8 0zM415 180.3q-1.9 0-3.3-0.9q-1.4-0.8-2.2-2.3q-0.7-1.5-0.7-3.5q0-2 0.7-3.5q0.8-1.6 2.2-2.4q1.4-0.9 3.3-0.9q1.8 0 3.2 0.9q1.4 0.8 2.1 2.4q0.8 1.5 0.8 3.5q0 2-0.8 3.5q-0.7 1.5-2.1 2.3q-1.4 0.9-3.2 0.9zm0-2.2q1 0 1.8-0.6q0.8-0.5 1.3-1.6q0.4-1 0.4-2.3q0-1.4-0.4-2.4q-0.5-1-1.3-1.6q-0.8-0.6-1.8-0.6q-1.1 0-1.9 0.6q-0.8 0.5-1.3 1.6q-0.4 1-0.4 2.4q0 1.3 0.4 2.4q0.5 1 1.2 1.5q0.8 0.6 2 0.6zM428.1 180.3q-1.4 0-2.4-0.6q-1.1-0.6-1.7-1.7q-0.6-1.2-0.6-2.9l0-8l2.6 0l0 7.7q0 1.6 0.7 2.4q0.8 0.7 2.1 0.7q0.9 0 1.6-0.3q0.7-0.4 1.1-1.1q0.4-0.8 0.4-2l0-7.4l2.6 0l0 12.9l-2.5 0l0-3.2l0.6 0q-0.7 1.7-1.8 2.6q-1.1 0.9-2.7 0.9zM448.9 180.3q-1.9 0-3.3-0.9q-1.3-0.8-2.1-2.3q-0.8-1.6-0.8-3.5q0-2 0.8-3.5q0.8-1.6 2.1-2.4q1.4-0.9 3.3-0.9q1.1 0 2.1 0.4q1 0.3 1.7 0.9q0.8 0.7 1.2 1.5q0.5 0.9 0.6 1.9l-2.6 0q-0.1-0.5-0.3-1q-0.2-0.4-0.6-0.8q-0.4-0.3-0.9-0.5q-0.6-0.2-1.2-0.2q-1.1 0-1.9 0.6q-0.8 0.6-1.3 1.6q-0.4 1-0.4 2.4q0 1.3 0.4 2.4q0.5 1 1.3 1.5q0.8 0.6 1.9 0.6q0.6 0 1.1-0.2q0.6-0.2 0.9-0.5q0.4-0.3 0.6-0.8q0.3-0.5 0.4-1l2.6 0q-0.1 1-0.6 1.8q-0.4 0.9-1.2 1.5q-0.7 0.7-1.7 1q-1 0.4-2.1 0.4zM459.3 172.6l0 7.4l-2.6 0l0-18.2l2.6 0l0 8.5l-0.7 0q0.6-1.7 1.8-2.6q1.1-0.8 2.7-0.8q1.3 0 2.4 0.5q1 0.6 1.7 1.7q0.6 1.2 0.6 2.9l0 8l-2.6 0l0-7.7q0-1.6-0.7-2.4q-0.8-0.7-2.1-0.7q-0.9 0-1.6 0.3q-0.7 0.4-1.1 1.1q-0.4 0.8-0.4 2zM476.2 180.3q-1.8 0-3.2-0.9q-1.4-0.8-2.2-2.3q-0.8-1.5-0.8-3.5q0-2 0.8-3.5q0.8-1.6 2.2-2.4q1.4-0.9 3.2-0.9q1.9 0 3.2 0.9q1.4 0.8 2.2 2.4q0.8 1.5 0.8 3.5q0 2-0.8 3.5q-0.8 1.5-2.2 2.3q-1.3 0.9-3.2 0.9zm0-2.2q1.1 0 1.9-0.6q0.8-0.5 1.2-1.6q0.5-1 0.5-2.3q0-1.4-0.5-2.4q-0.4-1-1.2-1.6q-0.8-0.6-1.9-0.6q-1.1 0-1.9 0.6q-0.8 0.5-1.2 1.6q-0.4 1-0.4 2.4q0 1.3 0.4 2.4q0.4 1 1.2 1.5q0.8 0.6 1.9 0.6zM490.2 180.3q-1.8 0-3.2-0.9q-1.4-0.8-2.2-2.3q-0.8-1.5-0.8-3.5q0-2 0.8-3.5q0.8-1.6 2.2-2.4q1.4-0.9 3.2-0.9q1.8 0 3.2 0.9q1.4 0.8 2.2 2.4q0.8 1.5 0.8 3.5q0 2-0.8 3.5q-0.8 1.5-2.2 2.3q-1.4 0.9-3.2 0.9zm0-2.2q1.1 0 1.9-0.6q0.8-0.5 1.2-1.6q0.5-1 0.5-2.3q0-1.4-0.5-2.4q-0.4-1-1.2-1.6q-0.8-0.6-1.9-0.6q-1.1 0-1.9 0.6q-0.8 0.5-1.2 1.6q-0.5 1-0.5 2.4q0 1.3 0.5 2.4q0.4 1 1.2 1.5q0.8 0.6 1.9 0.6zM503.4 180.3q-1.5 0-2.6-0.5q-1.2-0.4-1.9-1.4q-0.8-0.9-0.9-2.3l2.6 0q0.1 1 0.8 1.6q0.7 0.6 2 0.6q1.2 0 1.9-0.5q0.7-0.5 0.7-1.3q0-0.7-0.5-1.1q-0.5-0.4-1.3-0.6l-2.2-0.4q-1.8-0.4-2.7-1.4q-1-0.9-1-2.3q0-1.2 0.7-2q0.6-0.9 1.7-1.4q1.1-0.5 2.6-0.5q1.4 0 2.5 0.5q1.2 0.6 1.8 1.5q0.7 0.9 0.7 2.2l-2.4 0q-0.1-0.9-0.8-1.5q-0.6-0.6-1.8-0.6q-1.1 0-1.7 0.5q-0.7 0.5-0.7 1.2q0 0.7 0.5 1.1q0.5 0.4 1.4 0.6l2.2 0.5q1.9 0.4 2.7 1.3q0.9 0.8 0.9 2.2q0 1.3-0.7 2.2q-0.6 0.8-1.8 1.3q-1.2 0.5-2.7 0.5zM516.4 180.3q-1.9 0-3.3-0.9q-1.4-0.8-2.1-2.4q-0.7-1.5-0.7-3.4q0-2 0.7-3.5q0.8-1.5 2.2-2.4q1.3-0.9 3.1-0.9q1.3 0 2.4 0.5q1.1 0.5 1.9 1.4q0.8 0.9 1.3 2.1q0.4 1.3 0.4 2.8l0 0.7l-10.9 0l0-2l9.5 0l-1.1 0.6q0-1.2-0.4-2.1q-0.5-0.9-1.2-1.4q-0.8-0.4-1.9-0.4q-1.1 0-1.9 0.4q-0.7 0.5-1.2 1.4q-0.4 0.9-0.4 2.1l0 1.1q0 1.2 0.4 2.2q0.5 0.9 1.3 1.4q0.8 0.5 1.9 0.5q0.9 0 1.5-0.2q0.7-0.3 1.1-0.7q0.4-0.5 0.6-1.1l2.5 0q-0.2 1.2-1 2.2q-0.8 0.9-2 1.5q-1.2 0.5-2.7 0.5zM525.9 180.2q-0.7 0-1.2-0.5q-0.5-0.5-0.5-1.2q0-0.7 0.5-1.2q0.5-0.5 1.2-0.5q0.7 0 1.2 0.5q0.5 0.5 0.5 1.2q0 0.7-0.5 1.2q-0.5 0.5-1.2 0.5z"/></g></svg>